<?xml version="1.0" encoding="iso-8859-1"?>
<!-- Generator: Adobe Illustrator 23.0.0, SVG Export Plug-In . SVG Version: 6.00 Build 0)  -->
<svg version="1.1" id="&#x56FE;&#x5C42;_1" xmlns="http://www.w3.org/2000/svg" xmlns:xlink="http://www.w3.org/1999/xlink" x="0px"
	 y="0px" viewBox="0 0 500 500" style="enable-background:new 0 0 500 500;" xml:space="preserve">
<g>
	
		<linearGradient id="SVGID_1_" gradientUnits="userSpaceOnUse" x1="-6751.4043" y1="3868.521" x2="-6751.4043" y2="4021.7686" gradientTransform="matrix(-0.7071 0.7071 0.7071 0.7071 -7134.5522 2343.4236)">
		<stop  offset="0" style="stop-color:#FFFFFF"/>
		<stop  offset="0.9859" style="stop-color:#FFFFFF;stop-opacity:0"/>
	</linearGradient>
	<polygon style="fill:url(#SVGID_1_);" points="481.683,414.828 484.779,411.732 376.417,303.369 373.321,306.465 	"/>
	
		<linearGradient id="SVGID_2_" gradientUnits="userSpaceOnUse" x1="-6654.834" y1="3868.521" x2="-6654.834" y2="4021.7686" gradientTransform="matrix(-0.7071 0.7071 0.7071 0.7071 -7134.5522 2343.4236)">
		<stop  offset="0" style="stop-color:#FFFFFF"/>
		<stop  offset="0.9859" style="stop-color:#FFFFFF;stop-opacity:0"/>
	</linearGradient>
	<polygon style="fill:url(#SVGID_2_);" points="413.398,483.113 416.494,480.017 308.131,371.655 305.035,374.751 	"/>
	
		<linearGradient id="SVGID_3_" gradientUnits="userSpaceOnUse" x1="-6702.9976" y1="3835.1958" x2="-6702.9976" y2="3988.4434" gradientTransform="matrix(-0.7071 0.7071 0.7071 0.7071 -7134.5522 2343.4236)">
		<stop  offset="0" style="stop-color:#FFFFFF"/>
		<stop  offset="0.9859" style="stop-color:#FFFFFF;stop-opacity:0"/>
	</linearGradient>
	<polygon style="fill:url(#SVGID_3_);" points="399.981,449.401 450.895,398.487 342.532,290.125 291.619,341.038 	"/>
	
		<linearGradient id="SVGID_4_" gradientUnits="userSpaceOnUse" x1="-6702.9976" y1="3835.1958" x2="-6702.9976" y2="3988.4434" gradientTransform="matrix(-0.7071 0.7071 0.7071 0.7071 -7134.5522 2343.4236)">
		<stop  offset="0" style="stop-color:#FFFFFF"/>
		<stop  offset="0.9859" style="stop-color:#FFFFFF;stop-opacity:0"/>
	</linearGradient>
	<polygon style="fill:url(#SVGID_4_);" points="415.806,433.576 435.07,414.312 326.708,305.949 307.443,325.214 	"/>
	
		<linearGradient id="SVGID_5_" gradientUnits="userSpaceOnUse" x1="-6727.687" y1="3835.1958" x2="-6727.687" y2="3988.4434" gradientTransform="matrix(-0.7071 0.7071 0.7071 0.7071 -7134.5522 2343.4236)">
		<stop  offset="0" style="stop-color:#FFFFFF"/>
		<stop  offset="0.9859" style="stop-color:#FFFFFF;stop-opacity:0"/>
	</linearGradient>
	<polygon style="fill:url(#SVGID_5_);" points="439.714,409.668 446.078,403.304 337.716,294.941 331.352,301.305 	"/>
	
		<linearGradient id="SVGID_6_" gradientUnits="userSpaceOnUse" x1="-6679.0371" y1="3835.1958" x2="-6679.0371" y2="3988.4434" gradientTransform="matrix(-0.7071 0.7071 0.7071 0.7071 -7134.5522 2343.4236)">
		<stop  offset="0" style="stop-color:#FFFFFF"/>
		<stop  offset="0.9859" style="stop-color:#FFFFFF;stop-opacity:0"/>
	</linearGradient>
	<polygon style="fill:url(#SVGID_6_);" points="405.313,444.069 411.678,437.704 303.315,329.342 296.951,335.706 	"/>
	
		<linearGradient id="SVGID_7_" gradientUnits="userSpaceOnUse" x1="-6703.3267" y1="3461.9285" x2="-6703.3267" y2="3839.6958" gradientTransform="matrix(-0.7071 0.7071 0.7071 0.7071 -7134.5522 2343.4236)">
		<stop  offset="0" style="stop-color:#FFFFFF"/>
		<stop  offset="0.0282" style="stop-color:#FDE7E7"/>
		<stop  offset="0.9859" style="stop-color:#FD8C8B"/>
	</linearGradient>
	<path style="fill:url(#SVGID_7_);" d="M345.8,293.221c0,0-14.276,8.084-28.553,22.36c-14.276,14.276-22.533,28.725-22.533,28.725
		S184.977,247.64,159.692,226.484s-65.017-60.545-68.286-64.157s-21.328-23.393-31.305-51.601s-13.932-52.117-6.88-59.169
		s31.305-4.816,62.437,8.428c7.74,3.612,30.273,11.008,50.225,30.961c5.848,6.192,80.154,85.658,123.671,137.431
		C301.767,242.996,345.8,293.221,345.8,293.221z"/>
	
		<linearGradient id="SVGID_8_" gradientUnits="userSpaceOnUse" x1="-6729.2075" y1="3519.457" x2="-6729.2075" y2="3839.6958" gradientTransform="matrix(-0.7071 0.7071 0.7071 0.7071 -7134.5522 2343.4236)">
		<stop  offset="0" style="stop-color:#FFFFFF"/>
		<stop  offset="0.9859" style="stop-color:#FFFFFF;stop-opacity:0"/>
	</linearGradient>
	<path style="opacity:0.4;fill:url(#SVGID_8_);" d="M165.884,90.945c5.848,6.192,80.154,85.658,123.671,137.431
		c12.212,14.62,56.245,64.845,56.245,64.845s-14.104,7.988-28.294,22.103L94.159,91.977l28.848-28.848
		C133.488,67.597,150.457,75.517,165.884,90.945z"/>
	
		<linearGradient id="SVGID_9_" gradientUnits="userSpaceOnUse" x1="-6753.8364" y1="3751.0312" x2="-6753.8364" y2="3868.521" gradientTransform="matrix(-0.7071 0.7071 0.7071 0.7071 -7134.5522 2343.4236)">
		<stop  offset="0" style="stop-color:#EA573E"/>
		<stop  offset="0.9859" style="stop-color:#FD056B"/>
	</linearGradient>
	<polygon style="fill:url(#SVGID_9_);" points="288.007,225.624 332.212,239.212 376.417,303.369 372.805,306.981 329.976,276.193 	
		"/>
	
		<linearGradient id="SVGID_10_" gradientUnits="userSpaceOnUse" x1="-6652.7661" y1="3751.0312" x2="-6652.7661" y2="3868.521" gradientTransform="matrix(-0.7071 0.7071 0.7071 0.7071 -7134.5522 2343.4236)">
		<stop  offset="0" style="stop-color:#EA573E"/>
		<stop  offset="0.9859" style="stop-color:#FD056B"/>
	</linearGradient>
	<polygon style="fill:url(#SVGID_10_);" points="227.978,285.653 279.923,329.342 308.647,371.139 305.379,374.407 240.018,329.686 
			"/>
	
		<linearGradient id="SVGID_11_" gradientUnits="userSpaceOnUse" x1="-6703.4932" y1="3461.9285" x2="-6703.4932" y2="3552.1421" gradientTransform="matrix(-0.7071 0.7071 0.7071 0.7071 -7134.5522 2343.4236)">
		<stop  offset="0" style="stop-color:#6F027A"/>
		<stop  offset="0.5044" style="stop-color:#A60174"/>
		<stop  offset="0.9859" style="stop-color:#E80075"/>
	</linearGradient>
	<path style="fill:url(#SVGID_11_);" d="M98.115,96.277c-16.565,16.565-17.125,44.628-16.837,53.68
		c-2.561-3.467-5.376-7.563-8.203-12.204l-6.382-11.543c-2.391-4.803-4.645-9.982-6.59-15.484
		c-9.976-28.209-13.932-52.117-6.88-59.169s31.305-4.816,62.437,8.428c6.061,2.829,21.194,7.979,37.055,19.661
		C145.114,79.263,115.412,78.979,98.115,96.277z"/>
	<path style="fill:#F9BCB6;" d="M103.447,101.609c-17.857,17.857-16.409,49.157-15.802,56.424c-1.059-1.257-2.275-2.742-3.605-4.442
		c-0.354-8.449-0.21-37.525,16.999-54.734c17.927-17.927,48.059-17.202,54.852-16.788c1.069,0.844,2.139,1.718,3.207,2.625
		C153.794,84.337,122.007,83.049,103.447,101.609z"/>
	
		<linearGradient id="SVGID_12_" gradientUnits="userSpaceOnUse" x1="-6702.7812" y1="3639.3794" x2="-6702.7812" y2="3657.0652" gradientTransform="matrix(-0.7071 0.7071 0.7071 0.7071 -7134.5522 2343.4236)">
		<stop  offset="0" style="stop-color:#E8694B"/>
		<stop  offset="0.9859" style="stop-color:#F93069"/>
	</linearGradient>
	<path style="fill:url(#SVGID_12_);" d="M218.36,147.796c3.109,3.415,6.277,6.903,9.481,10.443
		c-4.547,2.235-21.687,11.29-39.08,28.684c-16.103,16.103-26.033,32.961-29.45,39.241c-3.102-2.603-6.414-5.472-9.846-8.512
		c2.51-5.453,11.282-22.668,29.32-40.706C196.796,158.935,213.169,150.279,218.36,147.796z"/>
	
		<linearGradient id="SVGID_13_" gradientUnits="userSpaceOnUse" x1="-6703.1934" y1="3808.1948" x2="-6703.1934" y2="3826.6819" gradientTransform="matrix(-0.7071 0.7071 0.7071 0.7071 -7134.5522 2343.4236)">
		<stop  offset="0" style="stop-color:#FA8079"/>
		<stop  offset="0.9859" style="stop-color:#FA6974"/>
	</linearGradient>
	<path style="fill:url(#SVGID_13_);" d="M284.851,335.624c-1.803-1.586-3.818-3.359-6.016-5.292l-3.212-3.227
		c0,0,4.128-12.384,22.533-30.789c15.693-15.694,27.383-21.381,30.487-22.716c3.093,3.543,5.963,6.828,8.437,9.657l0.121,0.159
		c0,0-20.64,13.76-29.413,22.533C299.762,313.975,286.97,332.525,284.851,335.624z"/>
	
		<linearGradient id="SVGID_14_" gradientUnits="userSpaceOnUse" x1="-6703.0288" y1="3824.0061" x2="-6703.0288" y2="3839.6958" gradientTransform="matrix(-0.7071 0.7071 0.7071 0.7071 -7134.5522 2343.4236)">
		<stop  offset="0" style="stop-color:#E8694B"/>
		<stop  offset="0.9859" style="stop-color:#ED4E6C"/>
	</linearGradient>
	<path style="fill:url(#SVGID_14_);" d="M294.715,344.306c0,0-2.853-2.513-7.74-6.813c1.056-2.813,5.827-13.462,22.36-29.995
		c15.822-15.822,26.058-21.044,29.319-22.439c4.362,4.986,7.146,8.162,7.146,8.162s-1.771,1.003-4.686,2.924
		c-1.007,0.625-2.161,1.402-3.482,2.37c-5.427,3.808-12.905,9.587-20.385,17.067C302.971,329.858,294.715,344.306,294.715,344.306z"
		/>
	
		<linearGradient id="SVGID_15_" gradientUnits="userSpaceOnUse" x1="-6703.1191" y1="3747.3823" x2="-6703.1191" y2="3858.5476" gradientTransform="matrix(-0.7071 0.7071 0.7071 0.7071 -7134.5522 2343.4236)">
		<stop  offset="0" style="stop-color:#EF3B16"/>
		<stop  offset="0.9859" style="stop-color:#85023A"/>
	</linearGradient>
	<polygon style="fill:url(#SVGID_15_);" points="336.168,329.514 331.696,333.986 258.078,265.185 255.154,253.316 266.85,256.412 	
		"/>
	
		<linearGradient id="SVGID_16_" gradientUnits="userSpaceOnUse" x1="-6699.835" y1="3748.187" x2="-6699.835" y2="3858.5476" gradientTransform="matrix(-0.7071 0.7071 0.7071 0.7071 -7134.5522 2343.4236)">
		<stop  offset="0" style="stop-color:#FFFFFF"/>
		<stop  offset="0.9859" style="stop-color:#FFFFFF;stop-opacity:0"/>
	</linearGradient>
	<polygon style="opacity:0.3;fill:url(#SVGID_16_);" points="333.416,332.266 331.696,333.986 258.078,265.185 255.379,254.229 	"/>
	<g style="opacity:0.8;">
		
			<linearGradient id="SVGID_17_" gradientUnits="userSpaceOnUse" x1="-6729.3223" y1="3476.1575" x2="-6729.3223" y2="3582.2158" gradientTransform="matrix(-0.7071 0.7071 0.7071 0.7071 -7134.5522 2343.4236)">
			<stop  offset="0" style="stop-color:#FFFFFF"/>
			<stop  offset="0.9859" style="stop-color:#FFFFFF;stop-opacity:0"/>
		</linearGradient>
		<path style="fill:url(#SVGID_17_);" d="M161.76,113.129c1.764-1.764,6.789-10.433,5.156-12.381
			c-17.156-20.459-40.946-30.348-56.761-38.185C93.06,54.093,76.566,52.523,76.023,52.372c-2.589-0.719-5.27,0.797-5.989,3.386
			c-0.719,2.588,0.796,5.269,3.384,5.988l0,0c0.126,0.035,12.886,4.881,26.932,16.469c13.76,11.352,27.839,25.443,43.861,44.549
			c1.726,2.059,15.171-7.618,17.23-9.345C161.553,113.328,161.659,113.23,161.76,113.129z"/>
	</g>
</g>
</svg>
